<?xml version="1.0" standalone="no"?>
<!DOCTYPE svg PUBLIC "-//W3C//DTD SVG 20010904//EN"
 "http://www.w3.org/TR/2001/REC-SVG-20010904/DTD/svg10.dtd">
<svg version="1.0" xmlns="http://www.w3.org/2000/svg"
 width="260.000000pt" height="260.000000pt" viewBox="0 0 260.000000 260.000000"
 preserveAspectRatio="xMidYMid meet">
<metadata>
Created by potrace 1.14, written by Peter Selinger 2001-2017
</metadata>
<g transform="translate(0.000000,260.000000) scale(0.100000,-0.100000)"
fill="#000000" stroke="none">
<path d="M1321 1728 c-107 -282 -196 -515 -198 -518 -6 -7 -19 17 -39 75 l-18
54 62 163 62 164 -51 153 c-34 102 -54 149 -60 140 -5 -8 -34 -83 -65 -166
-32 -84 -60 -153 -63 -153 -3 0 -52 118 -107 263 l-102 262 -121 3 c-66 1
-121 0 -121 -3 0 -3 73 -186 161 -407 89 -222 164 -413 166 -425 4 -18 -135
-409 -142 -401 -2 2 -87 220 -190 486 l-188 482 -122 0 -122 0 309 -777 c170
-428 311 -779 312 -781 2 -1 61 151 132 338 71 187 131 340 134 340 3 0 41
-90 84 -200 44 -110 82 -200 85 -200 3 0 118 296 255 658 l248 657 -42 130
c-23 72 -48 140 -54 153 -10 20 -34 -36 -205 -490z"/>
<path d="M2299 2148 c-5 -13 -99 -243 -208 -512 l-199 -490 51 -148 c29 -81
55 -144 58 -140 4 5 486 1152 546 1300 4 9 -23 12 -116 12 -116 0 -122 -1
-132 -22z"/>
<path d="M1667 1389 l-208 -512 46 -136 c25 -75 49 -142 53 -149 6 -8 92 187
240 540 127 304 251 601 276 661 l45 107 -122 0 -123 0 -207 -511z"/>
</g>
</svg>
